<svg id="visual" viewBox="0 0 900 600" width="900" height="600" xmlns="http://www.w3.org/2000/svg" xmlns:xlink="http://www.w3.org/1999/xlink" version="1.1"><path d="M0 169L82 229L164 91L245 109L327 181L409 169L491 133L573 235L655 151L736 169L818 109L900 133L900 0L818 0L736 0L655 0L573 0L491 0L409 0L327 0L245 0L164 0L82 0L0 0Z" fill="#00cc8e"></path><path d="M0 211L82 307L164 187L245 181L327 223L409 205L491 229L573 307L655 211L736 241L818 181L900 193L900 131L818 107L736 167L655 149L573 233L491 131L409 167L327 179L245 107L164 89L82 227L0 167Z" fill="#00b98a"></path><path d="M0 319L82 373L164 265L245 241L327 319L409 247L491 337L573 379L655 307L736 307L818 307L900 319L900 191L818 179L736 239L655 209L573 305L491 227L409 203L327 221L245 179L164 185L82 305L0 209Z" fill="#00a784"></path><path d="M0 397L82 481L164 355L245 343L327 415L409 415L491 463L573 499L655 391L736 427L818 421L900 457L900 317L818 305L736 305L655 305L573 377L491 335L409 245L327 317L245 239L164 263L82 371L0 317Z" fill="#00957c"></path><path d="M0 601L82 601L164 601L245 601L327 601L409 601L491 601L573 601L655 601L736 601L818 601L900 601L900 455L818 419L736 425L655 389L573 497L491 461L409 413L327 413L245 341L164 353L82 479L0 395Z" fill="#038373"></path></svg>